<?xml version="1.0"?>
<svg version="1.1" xmlns="http://www.w3.org/2000/svg" width="250" height="83" style=""><path fill="#de973a" d="M16.4765625,42.9765625q0-0.9140625,0.05859375-2.68359375t0.17578125-3.69140625t0.3046875-3.59765625t0.5390625-2.40234375q0.1875-0.375,0.57421875-0.50390625t0.76171875-0.12890625q0.234375,0,0.78515625,0.12890625t0.55078125,0.50390625q0,0.5859375-0.140625,2.21484375t-0.2578125,3.73828125t-0.1640625,4.3828125l0,1.0078125q0,1.7109375,0.1171875,3.2109375q0.1640625,1.921875,0.62109375,3.1640625t1.37109375,1.2421875q1.2421875,0,2.3203125-0.73828125t1.96875-1.921875t1.60546875-2.6484375t1.21875-2.8828125t0.84375-2.61328125t0.48046875-1.875q0.140625-0.7734375,0.24609375-2.0625t0.33984375-2.53125t0.83203125-2.15625t1.74609375-0.9140625q0.6796875,0,1.30078125,0.234375t0.80859375,1.0078125q-0.375,1.4296875-0.6328125,3.97265625t-0.41015625,5.33203125t-0.22265625,5.40234375t-0.0703125,4.25390625q0,1.828125,0.046875,4.46484375t0.1640625,5.44921875t0.26953125,5.47265625t0.33984375,4.44140625q0.1875,0.375,0.1875,0.8671875q0,0.5859375-0.234375,0.9140625t-0.64453125,0.4921875t-0.890625,0.2109375t-0.92578125,0.046875q-0.6796875,0-1.51171875-0.234375t-1.01953125-0.9609375q-0.234375-0.8671875-0.38671875-2.28515625t-0.22265625-3.09375t-0.1171875-3.50390625t-0.046875-3.50390625t0.0234375-3.1171875t0.0234375-2.35546875q0-1.78125,0.0703125-3.50390625t0.1640625-3.50390625q-0.5859375,1.1953125-1.37109375,2.42578125t-1.79296875,2.23828125t-2.25,1.65234375t-2.6953125,0.64453125q-1.875,0-2.859375-1.0078125t-1.4296875-2.49609375t-0.50390625-3.1640625t-0.05859375-3.03515625z M39.320390625,54.6953125q0-0.46875,0.10546875-1.2421875t0.24609375-1.53515625t0.328125-1.41796875t0.4453125-0.84375q0.1875-0.1875,0.64453125-0.375t0.9609375-0.26953125t0.9375,0.0703125t0.52734375,0.62109375q-0.328125,0.421875-0.59765625,1.44140625t-0.41015625,2.26171875q-0.1171875,1.0546875-0.1171875,2.1796875l0,0.3984375q0.0234375,1.3125,0.234375,2.4140625t0.64453125,1.81640625t1.20703125,0.71484375q1.640625,0,3-1.51171875t2.4140625-3.69140625t1.8515625-4.62890625t1.359375-4.27734375q0.140625-0.5390625,0.66796875-0.7265625t1.13671875-0.12890625t1.08984375,0.29296875t0.57421875,0.5625q-0.46875,3.9375-0.73828125,7.875t-0.26953125,7.921875q0,0.7734375,0.0703125,1.41796875t-0.0703125,1.1015625t-0.62109375,0.7265625t-1.53515625,0.26953125q-0.234375,0-0.59765625-0.046875t-0.75-0.15234375t-0.65625-0.31640625t-0.26953125-0.4921875q0-1.734375,0.12890625-3.5625t0.36328125-3.5390625q-0.6328125,0.9140625-1.39453125,1.81640625t-1.67578125,1.62890625t-1.96875,1.16015625t-2.2734375,0.43359375q-1.734375,0-2.73046875-0.8203125t-1.5-2.05078125t-0.6328125-2.68359375t-0.12890625-2.8125z M61.4259375,50.88671875q-0.05859375-0.78515625,0.09375-1.44140625t0.609375-1.06640625t1.46484375-0.41015625q0.234375,0,0.57421875,0.05859375t0.66796875,0.15234375t0.55078125,0.28125t0.22265625,0.515625l0,2.6484375q0.9140625-1.0546875,1.9921875-1.51171875t2.4609375-0.45703125q1.0546875,0,2.0859375,0.48046875t1.9453125,1.27734375t1.58203125,1.7578125t0.97265625,1.921875q0.1875-0.8671875,0.421875-2.12109375t0.69140625-2.40234375t1.20703125-1.96875t1.9921875-0.8203125q1.3359375,0,2.25,0.9609375t1.48828125,2.49609375t0.8671875,3.43359375t0.43359375,3.75t0.140625,3.45703125l0,2.51953125q0,0.28125-0.2109375,0.45703125t-0.52734375,0.26953125t-0.65625,0.1171875t-0.52734375,0.0234375q-0.7265625,0-1.32421875-0.22265625t-0.59765625-1.13671875l0-2.109375t-0.046875-2.73046875t-0.1640625-2.9296875t-0.3046875-2.66015625t-0.48046875-1.921875t-0.71484375-0.75q-0.5859375,0-0.84375,0.65625t-0.43359375,1.6640625t-0.26953125,2.1328125t-0.2578125,2.1328125t-0.52734375,1.65234375t-0.99609375,0.64453125q-0.6796875,0-1.1953125-0.64453125t-1.01953125-1.60546875t-1.0078125-2.0625t-1.11328125-2.0625q-0.609375-0.984375-1.3125-1.59375q-0.6328125-0.5859375-1.4296875-0.5625l-0.1171875,0q-1.0546875,0.046875-1.65234375,0.76171875t-0.9140625,1.74609375t-0.38671875,2.21484375t-0.0703125,2.07421875q0,0.84375,0.140625,1.96875q0.09375,0.75,0.09375,1.4296875q0,0.3515625-0.0234375,0.6796875q-0.0703125,0.984375-0.52734375,1.65234375t-1.69921875,0.66796875q-0.46875,0-1.171875-0.09375t-0.9375-0.6328125q-0.5390625-0.9609375-0.8203125-2.42578125t-0.421875-3.0234375t-0.1640625-3.09375t-0.0234375-2.63671875q0-0.7734375-0.05859375-1.55859375z M91.043203125,50.88671875q-0.05859375-0.78515625,0.09375-1.44140625t0.609375-1.06640625t1.46484375-0.41015625q0.234375,0,0.57421875,0.05859375t0.66796875,0.15234375t0.55078125,0.28125t0.22265625,0.515625l0,2.6484375q0.9140625-1.0546875,1.9921875-1.51171875t2.4609375-0.45703125q1.0546875,0,2.0859375,0.48046875t1.9453125,1.27734375t1.58203125,1.7578125t0.97265625,1.921875q0.1875-0.8671875,0.421875-2.12109375t0.69140625-2.40234375t1.20703125-1.96875t1.9921875-0.8203125q1.3359375,0,2.25,0.9609375t1.48828125,2.49609375t0.8671875,3.43359375t0.43359375,3.75t0.140625,3.45703125l0,2.51953125q0,0.28125-0.2109375,0.45703125t-0.52734375,0.26953125t-0.65625,0.1171875t-0.52734375,0.0234375q-0.7265625,0-1.32421875-0.22265625t-0.59765625-1.13671875l0-2.109375t-0.046875-2.73046875t-0.1640625-2.9296875t-0.3046875-2.66015625t-0.48046875-1.921875t-0.71484375-0.75q-0.5859375,0-0.84375,0.65625t-0.43359375,1.6640625t-0.26953125,2.1328125t-0.2578125,2.1328125t-0.52734375,1.65234375t-0.99609375,0.64453125q-0.6796875,0-1.1953125-0.64453125t-1.01953125-1.60546875t-1.0078125-2.0625t-1.11328125-2.0625q-0.609375-0.984375-1.3125-1.59375q-0.6328125-0.5859375-1.4296875-0.5625l-0.1171875,0q-1.0546875,0.046875-1.65234375,0.76171875t-0.9140625,1.74609375t-0.38671875,2.21484375t-0.0703125,2.07421875q0,0.84375,0.140625,1.96875q0.09375,0.75,0.09375,1.4296875q0,0.3515625-0.0234375,0.6796875q-0.0703125,0.984375-0.52734375,1.65234375t-1.69921875,0.66796875q-0.46875,0-1.171875-0.09375t-0.9375-0.6328125q-0.5390625-0.9609375-0.8203125-2.42578125t-0.421875-3.0234375t-0.1640625-3.09375t-0.0234375-2.63671875q0-0.7734375-0.05859375-1.55859375z M120.601875,51.53125q0-0.6796875,0.38671875-0.890625t0.97265625-0.2109375q0.9609375,0,1.46484375,0.36328125t0.50390625,1.27734375q0,1.1015625,0.1640625,2.75390625t0.48046875,3.2109375t0.75,2.68359375t0.90234375,1.125q0.8671875,0,1.53515625-1.3359375t1.171875-3.28125t0.8671875-4.18359375t0.50390625-3.99609375q0.09375-0.9609375,0.45703125-1.39453125t1.32421875-0.43359375q1.1015625,0,1.60546875,0.9140625t0.64453125,2.25q0.1171875,1.1484375,0.1171875,2.390625l0,0.3984375l0,0.9375q0,0.890625,0.0234375,1.59375l0.6796875,14.3671875l0.09375,2.390625q0.046875,0.328125,0.0703125,0.62109375t0.0234375,0.62109375q0,1.3359375-0.57421875,1.72265625t-1.86328125,0.38671875q-0.28125,0-0.71484375-0.046875t-0.84375-0.1875t-0.703125-0.38671875t-0.29296875-0.62109375l0.09375-0.234375q0.1171875-1.40625,0.1171875-2.953125l0-0.4921875q-0.0234375-1.828125-0.1171875-3.703125t-0.2109375-3.75t-0.1171875-3.609375q-0.328125,0.7265625-0.76171875,1.5t-1.0078125,1.39453125t-1.30078125,1.03125t-1.640625,0.41015625q-1.3359375,0-2.203125-0.703125t-1.34765625-1.828125t-0.69140625-2.51953125t-0.28125-2.7890625t-0.09375-2.66015625t-0.1875-2.1328125z M149.32078125,61.5625q0.140625-3.796875,0.24609375-7.78125t0.19921875-7.86328125t0.140625-7.53515625t0.046875-6.8203125q0.046875-0.6328125,1.1015625-1.0078125t2.51953125-0.55078125t3.09375-0.22265625t2.89453125-0.046875q0.28125,0,1.171875-0.0234375l0.4453125,0q0.6796875,0,1.4296875,0.046875q0.984375,0.0703125,1.72265625,0.3046875t0.73828125,0.6796875q0,0.328125-0.2578125,0.52734375t-0.59765625,0.29296875t-0.703125,0.1171875t-0.50390625,0.0234375q-2.203125,0-4.359375-0.0703125q-0.5859375-0.0234375-1.1953125-0.0234375q-1.59375,0-3.234375,0.140625q0.09375,0.28125,0.15234375,1.69921875t0.05859375,3.19921875t-0.0234375,3.48046875t0,2.61328125l0,6.09375q0.7265625-0.046875,1.4296875-0.046875l1.40625,0l0.9375-0.046875q0.46875-0.0234375,0.984375-0.0234375q0.5390625,0,1.1015625,0.0234375q1.125,0.046875,2.05078125,0.26953125t0.92578125,0.78515625q0,0.421875-0.3515625,0.62109375t-0.78515625,0.29296875t-0.8203125,0.09375l-0.43359375,0q-1.3359375,0-2.77734375-0.09375t-2.68359375-0.09375q-0.234375,0.09375-0.50390625,0.0703125t-0.48046875-0.0234375q0,3.515625-0.0703125,6.99609375t-0.1640625,6.92578125q0,0.6796875-0.85546875,0.890625t-1.62890625,0.2109375q-0.8671875,0-1.37109375-0.2109375t-0.71484375-0.69140625t-0.2578125-1.27734375q-0.0234375-0.4453125-0.046875-0.984375q0-0.4453125,0.0234375-0.9609375z M167.969296875,57.203125q0-1.3359375,0.33984375-2.75390625t1.078125-2.5546875t1.86328125-1.8515625t2.71875-0.71484375q1.1953125,0,2.51953125,0.41015625t2.42578125,1.171875t1.79296875,1.86328125t0.69140625,2.4609375q0,1.640625-0.59765625,3.1171875t-1.67578125,2.63671875t-2.51953125,1.828125t-3.12890625,0.66796875q-1.3828125,0-2.4140625-0.50390625t-1.72265625-1.34765625t-1.03125-1.9921875t-0.33984375-2.4375z M171.414609375,57.15625q0,0.421875,0.12890625,1.2421875t0.38671875,1.60546875t0.66796875,1.359375t0.99609375,0.52734375q1.2421875-0.140625,2.05078125-0.80859375t1.3125-1.62890625t0.703125-2.0859375t0.19921875-2.1328125q0-1.2890625-0.50390625-2.15625t-1.65234375-1.40625q0,0.046875,0.046875,0.046875t0.046875-0.046875l-0.5859375-0.140625q-0.234375-0.09375-0.57421875-0.2109375t-0.66796875-0.515625q-0.9140625,0.328125-1.41796875,0.84375t-0.76171875,1.25390625t-0.31640625,1.76953125t-0.05859375,2.484375z M185.2584375,57.203125q0-1.3359375,0.33984375-2.75390625t1.078125-2.5546875t1.86328125-1.8515625t2.71875-0.71484375q1.1953125,0,2.51953125,0.41015625t2.42578125,1.171875t1.79296875,1.86328125t0.69140625,2.4609375q0,1.640625-0.59765625,3.1171875t-1.67578125,2.63671875t-2.51953125,1.828125t-3.12890625,0.66796875q-1.3828125,0-2.4140625-0.50390625t-1.72265625-1.34765625t-1.03125-1.9921875t-0.33984375-2.4375z M188.70375,57.15625q0,0.421875,0.12890625,1.2421875t0.38671875,1.60546875t0.66796875,1.359375t0.99609375,0.52734375q1.2421875-0.140625,2.05078125-0.80859375t1.3125-1.62890625t0.703125-2.0859375t0.19921875-2.1328125q0-1.2890625-0.50390625-2.15625t-1.65234375-1.40625q0,0.046875,0.046875,0.046875t0.046875-0.046875l-0.5859375-0.140625q-0.234375-0.09375-0.57421875-0.2109375t-0.66796875-0.515625q-0.9140625,0.328125-1.41796875,0.84375t-0.76171875,1.25390625t-0.31640625,1.76953125t-0.05859375,2.484375z M203.016328125,56.4765625q0-1.828125,0.38671875-3.31640625t1.23046875-2.51953125t2.21484375-1.60546875t3.33984375-0.57421875q1.1015625,0,2.25,0.29296875t1.96875,1.08984375q0-0.46875,0.09375-1.93359375t0.234375-3.41015625t0.29296875-4.078125t0.26953125-3.9609375t0.2109375-3.0703125t0.140625-1.40625q0.234375-0.6796875,0.8671875-0.80859375t1.1953125-0.12890625q1.4765625,0,1.81640625,0.46875t0.33984375,1.875q0,5.1328125-0.45703125,10.21875t-0.45703125,10.21875q0,3.3046875,0.12890625,6.64453125t0.92578125,6.57421875l0.2578125,0.234375l0.140625,0.421875l-0.3515625,0.5390625q-0.890625,0.5625-2.0625,0.5625l-0.09375,0q-1.1953125,0-2.203125-0.5625q-0.375-0.234375-0.62109375-1.39453125t-0.38671875-2.5546875t-0.2109375-2.68359375t-0.1171875-1.828125q-0.8203125,1.875-2.23828125,3.22265625t-3.57421875,1.34765625q-1.6875,0-2.765625-0.7265625t-1.67578125-1.8515625t-0.84375-2.51953125t-0.24609375-2.77734375z M205.852265625,56.6171875q0,0.5390625,0.12890625,1.59375t0.41015625,2.109375t0.78515625,1.875t1.32421875,0.8203125q1.1015625-0.5390625,1.9921875-1.79296875t1.53515625-2.765625t1.0078125-3.0234375t0.36328125-2.61328125q0-1.3828125-1.0078125-2.296875t-2.4140625-0.9140625q-0.421875,0-0.85546875,0.1640625t-0.80859375,0.375q-0.8671875,0.8203125-1.34765625,1.48828125t-0.7265625,1.3828125t-0.31640625,1.58203125t-0.0703125,2.015625z"/><path fill="#" d=""/></svg>
